<svg width="1095" height="1095" viewBox="0 0 1095 1095" fill="none" xmlns="http://www.w3.org/2000/svg">
<g clip-path="url(#clip0_406_64)">
<path d="M1095 547.5C1095 849.9 849.9 1095 547.5 1095C245.1 1095 0 849.9 0 547.5C0 245.1 245.1 0 547.5 0C849.9 0 1095 245.1 1095 547.5ZM547.5 28.6C260.9 28.6 28.6 260.9 28.6 547.5C28.6 834.1 260.9 1066.4 547.5 1066.4C834.1 1066.4 1066.4 834.1 1066.4 547.5C1066.4 260.9 834.1 28.6 547.5 28.6Z" fill="black"/>
<path d="M1095 547.5C1095 849.9 849.9 1095 547.5 1095C245.1 1095 0 849.9 0 547.5C0 245.1 245.1 0 547.5 0C849.9 0 1095 245.1 1095 547.5ZM547.5 28.6C260.9 28.6 28.6 260.9 28.6 547.5C28.6 834.1 260.9 1066.4 547.5 1066.4C834.1 1066.4 1066.4 834.1 1066.4 547.5C1066.4 260.9 834.1 28.6 547.5 28.6Z" fill="url(#paint0_linear_406_64)"/>
</g>
<defs>
<linearGradient id="paint0_linear_406_64" x1="474.97" y1="270.848" x2="1.58704" y2="992.462" gradientUnits="userSpaceOnUse">
<stop stop-color="#0008FF"/>
<stop offset="1" stop-color="#00AEFF"/>
</linearGradient>
<clipPath id="clip0_406_64">
<rect width="1095" height="1095" fill="white"/>
</clipPath>
</defs>
</svg>
