<svg width="69" height="92" viewBox="0 0 69 92" fill="none" xmlns="http://www.w3.org/2000/svg">
<ellipse cx="34" cy="35" rx="25" ry="28" fill="#FED253"/>
<path d="M20.143 81.632C20.143 82.7635 20.4693 83.8673 21.0924 84.8107L24.1723 89.4269C25.1156 90.8419 27.2575 91.9928 28.9592 91.9928H40.0405C41.7364 91.9928 43.8786 90.8426 44.822 89.4269L47.891 84.8125C48.419 84.015 48.852 82.5898 48.852 81.632L48.875 74.5883H20.125L20.143 81.632ZM34.5 0C16.1755 0.0575539 2.875 14.9087 2.875 31.4633C2.875 39.4378 5.82906 46.708 10.7022 52.2711C13.6724 55.6564 18.3102 62.7343 20.0855 68.7035C20.0911 68.7484 20.1023 68.7963 20.1079 68.8441H48.8939C48.8995 68.7964 48.9107 68.7513 48.9163 68.7035C50.6907 62.7343 55.3294 55.6564 58.2996 52.2711C63.1781 46.8625 66.125 39.6031 66.125 31.4633C66.125 14.1594 51.9656 0.000700781 34.5 0ZM51.8219 46.7367C49.008 49.9441 45.5256 55.0562 43.0082 60.3732H26.008C23.4905 55.0562 20.0082 49.9441 17.1961 46.7385C13.5197 42.55 11.5 37.0336 11.5 31.4633C11.5 20.3586 20.143 8.66992 34.3383 8.625C47.1859 8.625 57.5 18.9391 57.5 31.4633C57.5 37.0336 55.4875 42.55 51.8219 46.7367ZM31.625 14.375C23.7008 14.375 17.25 20.8258 17.25 28.75C17.25 30.3392 18.5358 31.625 20.125 31.625C21.7142 31.625 23 30.3313 23 28.75C23 23.9937 26.8687 20.125 31.625 20.125C33.2142 20.125 34.5 18.8406 34.5 17.2518C34.5 15.663 33.2063 14.375 31.625 14.375Z" fill="black"/>
</svg>
