<?xml version="1.0" encoding="UTF-8"?>
<svg id="Layer_1" data-name="Layer 1" xmlns="http://www.w3.org/2000/svg" xmlns:xlink="http://www.w3.org/1999/xlink" viewBox="0 0 230.55 189.75">
  <defs>
    <style>
      .cls-1 {
        fill: #fff;
      }

      .cls-2 {
        clip-path: url(#clippath-1);
      }

      .cls-3 {
        clip-path: url(#clippath);
      }

      .cls-4 {
        fill: none;
      }

      .cls-5 {
        fill: #31809d;
      }
    </style>
    <clipPath id="clippath">
      <rect class="cls-4" x="16.05" y="45.75" width="99.64" height="87.25"/>
    </clipPath>
    <clipPath id="clippath-1">
      <rect class="cls-4" x="114.35" width="99.7" height="88.42"/>
    </clipPath>
  </defs>
  <g class="cls-3">
    <path class="cls-1" d="M82.72,107.52v12.04l-54.58-25.32v-9.77l54.58-25.32v12.04l-41.28,18.06v.23l41.28,18.06Zm32.41-61.76H23.86c-4.31,0-7.8,3.48-7.8,7.79V125.14c0,4.3,3.49,7.79,7.8,7.79H89.8l25.33-87.17"/>
  </g>
  <g class="cls-2">
    <path class="cls-5" d="M201.98,48.85l-54.58,24.98v-12.04l42.18-18.06v-.23l-42.18-18.06V13.42l54.58,24.98v10.45ZM140.48,.05l-25.34,87.17h91.13c4.31,0,7.8-3.48,7.8-7.79V7.84c0-4.3-3.49-7.79-7.8-7.79h-65.79"/>
  </g>
  <path class="cls-1" d="M10.25,167.23c3.38,0,5.97,.81,7.79,2.42,1.82,1.61,2.73,4.04,2.73,7.29v12.48h-5.94v-2.73c-1.2,2.04-3.42,3.06-6.67,3.06-1.68,0-3.14-.29-4.38-.85-1.22-.57-2.16-1.35-2.81-2.35-.66-1.01-.98-2.15-.98-3.42,0-2.03,.76-3.63,2.29-4.79,1.53-1.17,3.9-1.75,7.1-1.75h5.02c0-1.39-.43-2.45-1.27-3.19-.83-.75-2.08-1.13-3.75-1.13-1.17,0-2.31,.19-3.44,.56-1.13,.36-2.08,.85-2.88,1.48l-2.27-4.44c1.19-.83,2.63-1.48,4.29-1.94,1.67-.47,3.38-.71,5.15-.71Zm-.5,18.25c1.08,0,2.04-.25,2.88-.75,.84-.5,1.44-1.23,1.79-2.21v-2.25h-4.33c-2.6,0-3.9,.85-3.9,2.56,0,.82,.31,1.47,.94,1.94,.64,.47,1.51,.71,2.63,.71Z"/>
  <path class="cls-1" d="M34.34,170.44c.76-1.05,1.78-1.85,3.06-2.4,1.29-.54,2.78-.81,4.46-.81v5.85c-.71-.05-1.19-.08-1.44-.08-1.81,0-3.22,.51-4.25,1.52-1.03,1.02-1.54,2.54-1.54,4.58v10.31h-6.35v-21.85h6.06v2.88Z"/>
  <path class="cls-1" d="M69.85,159.27v30.15h-6.06v-2.52c-1.57,1.91-3.84,2.85-6.81,2.85-2.06,0-3.92-.46-5.58-1.38-1.67-.93-2.98-2.25-3.94-3.96-.95-1.71-1.42-3.69-1.42-5.94s.47-4.21,1.42-5.92c.96-1.71,2.27-3.02,3.94-3.94,1.67-.93,3.53-1.4,5.58-1.4,2.79,0,4.97,.89,6.54,2.65v-10.6h6.33Zm-11.79,25.27c1.61,0,2.94-.55,4-1.65,1.05-1.09,1.58-2.57,1.58-4.42s-.53-3.3-1.58-4.4c-1.06-1.09-2.39-1.65-4-1.65s-2.97,.55-4.02,1.65c-1.06,1.1-1.58,2.56-1.58,4.4s.53,3.32,1.58,4.42c1.05,1.1,2.4,1.65,4.02,1.65Z"/>
  <path class="cls-1" d="M95.48,184.54v4.88h-19.5v-3.81l11.15-13.17h-10.85v-4.88h18.85v3.81l-11.15,13.17h11.5Z"/>
  <path class="cls-1" d="M111.89,189.75c-2.32,0-4.41-.48-6.27-1.44-1.85-.97-3.3-2.31-4.35-4.02-1.04-1.71-1.56-3.65-1.56-5.81s.52-4.09,1.56-5.79c1.05-1.71,2.51-3.04,4.35-4,1.86-.97,3.95-1.46,6.27-1.46s4.32,.49,6.04,1.46c1.72,.96,2.97,2.33,3.75,4.1l-4.92,2.65c-1.14-2-2.78-3-4.92-3-1.66,0-3.02,.54-4.1,1.63s-1.63,2.56-1.63,4.42,.54,3.35,1.63,4.44,2.45,1.63,4.1,1.63c2.17,0,3.8-1,4.92-3l4.92,2.67c-.78,1.74-2.03,3.1-3.75,4.08-1.72,.97-3.74,1.46-6.04,1.46Z"/>
  <path class="cls-1" d="M137.55,189.75c-2.31,0-4.38-.48-6.21-1.44-1.82-.97-3.25-2.31-4.29-4.02-1.03-1.71-1.54-3.65-1.54-5.81s.51-4.09,1.54-5.79c1.04-1.71,2.47-3.04,4.29-4,1.83-.97,3.9-1.46,6.21-1.46s4.34,.49,6.17,1.46c1.82,.96,3.24,2.29,4.27,4,1.03,1.7,1.54,3.63,1.54,5.79s-.52,4.1-1.54,5.81c-1.03,1.71-2.45,3.05-4.27,4.02-1.82,.96-3.88,1.44-6.17,1.44Zm0-5.21c1.63,0,2.96-.55,4-1.65,1.04-1.09,1.56-2.57,1.56-4.42s-.52-3.3-1.56-4.4c-1.04-1.09-2.38-1.65-4-1.65s-2.97,.55-4.04,1.65c-1.06,1.1-1.58,2.56-1.58,4.4s.53,3.32,1.58,4.42c1.07,1.1,2.42,1.65,4.04,1.65Z"/>
  <path class="cls-1" d="M177.8,159.27v30.15h-6.06v-2.52c-1.57,1.91-3.84,2.85-6.81,2.85-2.06,0-3.92-.46-5.58-1.38-1.67-.93-2.98-2.25-3.94-3.96-.95-1.71-1.42-3.69-1.42-5.94s.47-4.21,1.42-5.92c.96-1.71,2.27-3.02,3.94-3.94,1.67-.93,3.53-1.4,5.58-1.4,2.79,0,4.97,.89,6.54,2.65v-10.6h6.33Zm-11.79,25.27c1.61,0,2.94-.55,4-1.65,1.05-1.09,1.58-2.57,1.58-4.42s-.53-3.3-1.58-4.4c-1.06-1.09-2.39-1.65-4-1.65s-2.97,.55-4.02,1.65c-1.06,1.1-1.58,2.56-1.58,4.4s.53,3.32,1.58,4.42c1.05,1.1,2.4,1.65,4.02,1.65Z"/>
  <path class="cls-1" d="M206.85,178.56c0,.08-.04,.66-.13,1.71h-16.52c.29,1.36,.99,2.44,2.1,3.23,1.11,.78,2.49,1.17,4.15,1.17,1.14,0,2.15-.17,3.02-.5,.88-.34,1.69-.89,2.46-1.63l3.38,3.67c-2.06,2.36-5.06,3.54-9.02,3.54-2.46,0-4.64-.48-6.54-1.44-1.89-.97-3.35-2.31-4.4-4.02-1.03-1.71-1.54-3.65-1.54-5.81s.51-4.06,1.52-5.77c1.03-1.72,2.42-3.06,4.19-4.02,1.78-.97,3.76-1.46,5.96-1.46s4.07,.47,5.81,1.4c1.73,.92,3.09,2.24,4.08,3.96,.98,1.72,1.48,3.72,1.48,5.98Zm-11.33-6.54c-1.43,0-2.64,.41-3.63,1.23-.97,.81-1.56,1.92-1.77,3.33h10.75c-.21-1.39-.81-2.49-1.79-3.31-.97-.83-2.16-1.25-3.56-1.25Z"/>
  <path class="cls-1" d="M220.22,189.75c-1.81,0-3.58-.22-5.31-.67-1.74-.46-3.12-1.02-4.15-1.69l2.1-4.56c.98,.63,2.17,1.14,3.54,1.54,1.38,.39,2.73,.58,4.06,.58,2.68,0,4.02-.67,4.02-2,0-.63-.37-1.07-1.1-1.33-.72-.28-1.84-.51-3.35-.71-1.79-.26-3.27-.57-4.44-.92-1.17-.36-2.18-.98-3.04-1.88-.85-.89-1.27-2.16-1.27-3.81,0-1.39,.4-2.61,1.19-3.69,.8-1.07,1.97-1.9,3.5-2.5,1.54-.59,3.35-.9,5.44-.9,1.54,0,3.07,.18,4.6,.52,1.53,.33,2.8,.8,3.81,1.4l-2.13,4.5c-1.92-1.08-4.02-1.63-6.29-1.63-1.36,0-2.39,.2-3.06,.58-.67,.38-1,.86-1,1.46,0,.68,.36,1.16,1.08,1.44,.73,.27,1.9,.52,3.5,.75,1.79,.31,3.26,.63,4.4,.96,1.14,.33,2.13,.95,2.96,1.85,.84,.89,1.27,2.14,1.27,3.73,0,1.36-.41,2.57-1.23,3.63-.81,1.06-1.99,1.88-3.56,2.46-1.56,.58-3.41,.88-5.54,.88Z"/>
</svg>